<?xml version="1.0" encoding="UTF-8"?>
<svg width="240px" height="72px" viewBox="0 0 240 72" version="1.1" xmlns="http://www.w3.org/2000/svg" xmlns:xlink="http://www.w3.org/1999/xlink">
    <title>snhu_initials_rgb_rev</title>
    <g id="Page-1" stroke="none" stroke-width="1" fill="none" fill-rule="evenodd">
        <g id="snhu_initials_rgb_rev" fill-rule="nonzero">
            <path d="M101.9925,41.69 C101.9925,32.2336 80.6607,37.6763 80.6607,23.382 C80.6607,15.3 87.5881,12.2212 95.2852,12.2212 C99.4753253,12.3049669 103.628103,13.0279633 107.6,14.3652 L107.6,22.887 L103.147,22.887 C102.927,18.9285 98.419,17.0593 94.7903,17.0593 C90.392,17.0593 87.9179,19.3132 87.9179,22.6121 C87.9179,31.1887 109.1947,26.0207 109.1947,40.4803 C109.1947,49.0018 102.4323,53.1252 94.1855,53.1252 C89.6310954,52.9957133 85.1242725,52.1611415 80.8255,50.6512 L80.8255,41.58 L85.4437,41.58 C85.8837,46.0332 89.2373,48.0125 94.4052,48.0125 C98.5288,48.0123 101.9925,45.2084 101.9925,41.69 Z M143.8301,42.2948 L143.8301,17.444 L140.2016,17.444 L140.2016,12.8807 L153.4516,12.8807 L153.4516,17.444 L151.4174,17.444 C150.2074,17.444 149.823,18.104 149.823,18.9834 L149.823,52.4655 L142.016,52.4655 L123.8728,23.4918 L123.8728,47.9574 L127.5015,47.9574 L127.5015,52.4655 L114.1415,52.4655 L114.1415,47.9574 L116.1207,47.9574 C117.4407,47.9574 117.7702,47.2974 117.7702,46.4174 L117.7702,18.9834 C117.7702,18.1034 117.4402,17.444 116.1758,17.444 L114.1415,17.444 L114.1415,12.8807 L125.5772,12.8807 L143.8301,42.2948 Z M186.9867,34.7076 L169.1185,34.7076 L169.1185,47.9576 L172.7472,47.9576 L172.7472,52.4658 L158.3972,52.4658 L158.3972,47.9574 L160.3764,47.9574 C161.641,47.9574 162.0259,47.2974 162.0259,46.4174 L162.0259,18.9834 C162.0259,18.1034 161.641,17.444 160.4315,17.444 L158.3972,17.444 L158.3972,12.8807 L172.7472,12.8807 L172.7472,17.444 L169.1185,17.444 L169.1185,29.4293 L186.9867,29.4293 L186.9867,17.444 L183.3582,17.444 L183.3582,12.8807 L197.7076,12.8807 L197.7076,17.444 L195.7283,17.444 C194.4639,17.444 194.1339,18.104 194.1339,18.9834 L194.1339,46.4177 C194.1339,47.2977 194.4639,47.9577 195.7833,47.9577 L197.7076,47.9577 L197.7076,52.4658 L183.3582,52.4658 L183.3582,47.9574 L186.9867,47.9574 L186.9867,34.7076 Z M237.2905,17.444 C236.907422,17.3910085 236.521187,17.5165131 236.24243,17.7845641 C235.963672,18.0526152 235.823145,18.433641 235.8611,18.8185 L235.8611,38.8308 C235.8611,48.5619 230.693,53.1252 220.687,53.1252 C210.1861,53.1252 205.4579,48.4522 205.4579,38.8308 L205.4579,18.8185 C205.486453,18.4360457 205.342951,18.0607835 205.066496,17.7949653 C204.790041,17.5291471 204.40944,17.4004715 204.0284,17.444 L202.2691,17.444 L202.2691,12.8807 L215.9591,12.8807 L215.9591,17.444 L212.55,17.444 L212.55,39.4356 C212.55,46.6927 217.2232,47.9023 221.1267,47.9023 C224.8102,47.9023 229.7582,46.5278 229.7582,39.5456 L229.7582,17.444 L226.57,17.444 L226.57,12.8807 L239.05,12.8807 L239.05,17.444 L237.2905,17.444 Z" id="Shape" fill="#FFFFFF"></path>
            <path d="M66.2708,0 L0,0 C0,22.3673 3.7621,58.9222 33.1354,72 C62.5086,58.9222 66.2708,22.3673 66.2708,0 L66.2708,0 Z" id="Path" fill="#FFFFFF"></path>
            <path d="M64.26,2 C63.8837,37.5024 53.418,60.3012 33.1352,69.8014 C12.8526,60.3012 2.3868,37.5024 2.0105,2 L64.26,2 Z" id="Path" fill="#00244E"></path>
            <path d="M39.11,13.6007 C40.4268401,16.6439899 41.1232991,19.9194142 41.1586,23.2352 C41.1586,28.2658 39.5386,34.3805 34.4461,41.2442 C32.2073,44.2642 27.1746,50.0297 26.8527,54.5571 C27.9907818,57.1084262 29.5827454,59.4318582 31.5511,61.4143 C31.85,56.89 36.8825,51.1666 39.1235,48.137 C44.1293,41.37 45.8,35.2785 45.8,30.1622 C45.754356,23.9923869 43.3624845,18.0711644 39.11,13.6007 Z" id="Path" fill="#009DEA"></path>
            <path d="M39.6576,15.9942 C39.6576,19.1009 38.1322,24.0712 31.9501,31.2924 C29.8533,33.7416 25.1555,39.2124 25.1555,46.7215 C25.1744929,49.4225088 25.7521698,52.0903701 26.8522,54.5573 C26.8522,54.5573 20.4622,48.7512 20.4622,39.9396 C20.4622,35.5432 22.0528,30.3987 26.8213,24.8539 C33.6394,16.9257 34.9787,11.9149 34.9787,9.2013 C35.0375961,8.31530058 34.8430841,7.43083976 34.4179,6.6513 C35.4208,7.5606 39.6576,12.7382 39.6576,15.9942 Z" id="Path" fill="#FDB913"></path>
        </g>
    </g>
</svg>